<svg xmlns="http://www.w3.org/2000/svg" id="flag-icons-br" viewBox="0 0 640 480">
  <g fill-rule="evenodd">
    <path fill="#009b3a" d="M0 0h640v480H0z"/>
    <path fill="#ffdf00" d="M320 120 480 360 160 360z"/>
    <circle cx="320" cy="240" r="100" fill="#002776"/>
    <path fill="#fff" d="M259.4 240a60.6 60.6 0 1 1 121.2 0 60.6 60.6 0 1 1 -121.2 0z"/>
    <path fill="#3b6cbb" d="M260 240a60 60 0 1 0 120 0 60 60 0 1 0 -120 0z"/>
    <path fill="#fff" d="M256 227.1h128c1.3 1.3 2.5 2.7 3.7 4-1.2 1.3-2.4 2.7-3.7 4H256c-1.3-1.3-2.5-2.7-3.7-4 1.2-1.3 2.4-2.7 3.7-4z"/>
  </g>
</svg>
